<svg xmlns="http://www.w3.org/2000/svg" width="181.257" height="156.292" viewBox="0 0 181.257 156.292">
  <g id="Group_401693" data-name="Group 401693" transform="translate(0.529 154.538) rotate(-89)">
    <g id="Polygon_5" data-name="Polygon 5" transform="matrix(0.719, 0.695, -0.695, 0.719, 76.734, 25.243)" fill="none">
      <path d="M55.336,0l55.336,97H0Z" stroke="none"/>
      <path d="M 55.33573532104492 4.036216735839844 L 3.4434814453125 95.00028228759766 L 107.2279891967773 95.00028228759766 L 55.33573532104492 4.036216735839844 M 55.33573532104492 -7.62939453125e-06 L 110.6714706420898 97.00028228759766 L 0 97.00028228759766 L 55.33573532104492 -7.62939453125e-06 Z" stroke="none" fill="#76bed0"/>
    </g>
    <g id="Polygon_6" data-name="Polygon 6" transform="translate(65.003 30.769) rotate(43)" fill="none">
      <path d="M57.775,0,115.55,95.312H0Z" stroke="none"/>
      <path d="M 57.77493286132812 3.858268737792969 L 3.551078796386719 93.31233215332031 L 111.9987869262695 93.31233215332031 L 57.77493286132812 3.858268737792969 M 57.77493286132812 -7.62939453125e-06 L 115.5498657226562 95.31233215332031 L 0 95.31233215332031 L 57.77493286132812 -7.62939453125e-06 Z" stroke="none" fill="#ff6b35"/>
    </g>
    <line id="Line_12" data-name="Line 12" x1="94" y1="101" transform="translate(9.427 0)" fill="none" stroke="#ff6b35" stroke-width="2"/>
    <path id="Path_13526" data-name="Path 13526" d="M62,66.369,0,0" transform="translate(25.427 34.631)" fill="none" stroke="#76bed0" stroke-width="2"/>
  </g>
</svg>
